# xmcd
#
# Track frame offsets:
#	150
#	14291
#	29709
#	46034
#	62000
#	78185
#	91173
#	107139
#	123220
#	139271
#	155700
#	173843
#
# Disc length: 2534 seconds
#
# Revision: 1
# Processed by: cddbd v1.5.2PL0 Copyright (c) Steve Scherf et al.
# Submitted via: audiograbber 1.83.01
#
DISCID=9409e40c
DTITLE=Suzie Candell - I Gotta Be Me
DYEAR=2007
DGENRE=Country
TTITLE0=Billy Loves His Car
TTITLE1=Cajun Hoedown
TTITLE2=I Gotta Be Me
TTITLE3=Never Give Up
TTITLE4=The One That Got Away
TTITLE5=I Ride Trains
TTITLE6=Sleeping In My Car
TTITLE7=Is It Love
TTITLE8=Rockabilly Stomp
TTITLE9=Leaving This Town
TTITLE10=Little One
TTITLE11=Breaking Rules Again
EXTD=
EXTT0=
EXTT1=
EXTT2=
EXTT3=
EXTT4=
EXTT5=
EXTT6=
EXTT7=
EXTT8=
EXTT9=
EXTT10=
EXTT11=
PLAYORDER=
